# xmcd
#
# Track frame offsets: 
#        150
#        18139
#        40735
#        63152
#        76810
#        85122
#        101632
#        127453
#        145745
#        171842
#        184905
#        200884
#
# Disc length: 2954 seconds
#
# Revision: 0
# Processed by: cddbd v1.5.2PL0 Copyright (c) Steve Scherf et al.
# Submitted via: ExactAudioCopy v0.95b4
#
DISCID=a10b880c
DTITLE=Spencer Bohren - Dirt Roads
DYEAR=1900
DGENRE=Country
TTITLE0=The Water Is Wide
TTITLE1=How Long Blues
TTITLE2=Travelin
TTITLE3=Look Down The Road
TTITLE4=The Wild Ox Man
TTITLE5=Yazoo Bottom Messaround
TTITLE6=Goin' Up The River
TTITLE7=Wind In The Mountains
TTITLE8=Night Is Fallin
TTITLE9=Eloise
TTITLE10=Cry Of The Blues
TTITLE11=Wade In The Water
EXTD=
EXTT0=
EXTT1=
EXTT2=
EXTT3=
EXTT4=
EXTT5=
EXTT6=
EXTT7=
EXTT8=
EXTT9=
EXTT10=
EXTT11=
PLAYORDER=
